<?xml version="1.0" encoding="utf-8"?>
<!-- Generator: Adobe Illustrator 22.0.1, SVG Export Plug-In . SVG Version: 6.00 Build 0)  -->
<svg version="1.1" id="Layer_1" xmlns="http://www.w3.org/2000/svg" xmlns:xlink="http://www.w3.org/1999/xlink" x="0px" y="0px"
	 viewBox="0 0 612 792" style="enable-background:new 0 0 612 792;" xml:space="preserve">
<style type="text/css">
	.st0{fill:#E44134;}
	.st1{fill:#FEFEFE;}
	.st2{fill:#242021;}
</style>
<path class="st0" d="M603,386.5C602.8,545.4,473.7,674.2,314.8,674C156,673.8,27.3,544.8,27.4,386C27.5,227.1,156.7,98.3,315.6,98.5
	C474.3,98.7,603.1,227.7,603,386.5z M315.1,668.3c155.6,0,282-126.3,282.2-282c0.1-155.6-126.2-282-281.9-282.2
	C159.8,103.9,33.1,230.6,33.1,386.3C33.1,541.9,159.5,668.3,315.1,668.3z"/>
<path class="st1" d="M315.1,668.3c-155.6,0-282-126.5-282-282.1c0-155.7,126.7-282.3,282.3-282.1c155.7,0.2,282,126.7,281.9,282.2
	C597.2,542,470.7,668.4,315.1,668.3z M315.3,110.2c-152.1,0-276.1,123.7-276.2,275.6C39,538.1,162.7,662.1,314.7,662.3
	c152.4,0.1,276.4-123.6,276.5-275.9C591.3,234.2,467.4,110.2,315.3,110.2z"/>
<path class="st2" d="M315.3,110.2c152.1,0,275.9,124,275.9,276.2c-0.1,152.2-124.1,276-276.5,275.9C162.7,662.1,39,538.1,39.2,385.8
	C39.3,233.9,163.3,110.2,315.3,110.2z M315,578.5c106.1,0.1,192.3-85.8,192.4-191.8C507.6,280.4,421.6,194,315.4,194
	c-106.2-0.1-192.4,86-192.4,192.1C122.9,492.2,208.9,578.4,315,578.5z M103.9,403.7c0.3-11.7-2.3-23.8-7.3-34.4
	c-1.5-3.3-3.3-6.9-6.8-7.8c-3.2-0.8-6.1-2.7-9.4-3c-2.7-0.2-5.2,0.9-7.4,2.5c-2.5,1.8-4.6,4-6.1,6.7c-6.5,11.7-9.8,23.9-6.8,37.4
	c1.9,8.7,5.5,16.4,12,22.5c5.9,5.6,17,6.2,22.6,1.5c4.1-3.5,6.9-7.6,7.9-13C103.3,411.9,103.6,407.6,103.9,403.7z M531.4,405.2
	c0,5,0.2,10.4,1.6,15.7c2.2,8.1,8.2,12.6,16.5,12.7c6.4,0.1,10.7-3.4,14.3-8.1c12.1-16,13.1-40.3,2.4-57.4c-1.9-3.1-4.2-5.7-7.6-7.3
	c-3.1-1.4-5.7,0.1-8.7,0.7c-5.4,1.1-8.6,4.1-10.5,8.7C534.6,381.2,530.9,392.5,531.4,405.2z M401,177.6c-0.3-0.2-0.5-0.4-0.8-0.6
	c0.2-1.9,0.4-3.8,0.6-5.8c1-8.1,1.9-16.2,2.9-24.3c0.3-2.2,1-3.9,3.8-2.8c1.3,0.5,2.5,0.6,3.1-0.9c0.6-1.5-0.6-2.2-1.7-2.8
	c-4.9-2.3-9.7-4.7-14.6-7.1c-1-0.5-2.2-1-3,0.2c-0.9,1.3-0.3,2.3,0.9,3.1c2,1.2,2.4,3.1,2.2,5.3c-0.4,3.2-0.7,6.5-1,9.7
	c-1.4,12.7-2.8,25.3-4.1,38c-0.1,1.3-0.7,2.7,1.2,3.7c1.9,0.9,2.4-0.6,3.2-1.4c6.2-5.9,12.3-11.9,18.4-17.9c0.7-0.7,1.3-1.9,2.7-1.9
	c0.4,1.4,0,2.6-0.1,3.9c-0.9,8.2-1.8,16.4-2.6,24.6c-0.1,1.2-0.9,2.7,1.1,3.7c1.9,0.9,2.6-0.5,3.5-1.4c4.9-4.8,9.7-9.6,14.6-14.4
	c6.3-6.2,12.6-12.5,18.9-18.7c1.6-1.6,3.5-3,6-2.1c1.1,0.4,2.2,0.8,2.7-0.7c0.6-1.4-0.1-2.3-1.4-3c-3.9-1.9-7.9-3.8-11.8-5.7
	c-1.2-0.6-2.2-0.4-2.9,0.7c-0.7,1.2,0.1,1.8,1,2.5c3.3,2.8,3.3,3.1,0.2,6.3c-6.4,6.5-12.8,12.9-19.2,19.3c-0.4,0.4-0.7,1-1.7,0.8
	c1.2-10,1.9-20,3.6-29.9c0.5-2.8,1.6-4.1,4.6-2.7c1.2,0.6,2.2,0.5,2.8-0.8c0.5-1.2-0.1-2-1.2-2.5c-5.5-2.7-11-5.4-16.5-8
	c-1-0.5-2-0.4-2.7,0.6c-0.8,1.1-0.1,1.9,0.7,2.6c3,3.1,3.9,12.3,1,15.5C410.7,168,405.8,172.7,401,177.6z M286.1,127.3
	C286.1,127.3,286.1,127.3,286.1,127.3c-3.5,0.1-6.9,0.3-10.4,0.5c-1.1,0.1-2.1,0.4-2.2,1.6c-0.1,1.4,0.9,1.9,2.1,2.1
	c0.6,0.1,1.2,0.1,1.8,0.2c2.3,0.1,3.6,1.2,3.7,3.6c0.5,12.9,1.1,25.9,1.7,38.8c0.1,3-1.3,4.6-4.3,4.7c-1.4,0-2.9,0.3-2.8,2
	c0.1,1.9,1.8,1.9,3.3,1.8c6.1-0.3,12.2-0.5,18.3-0.8c1.4-0.1,3.2,0,3.1-2c0-1.9-1.7-1.6-3-1.8c-3.9-0.4-4.5-1-4.8-4.9
	c-0.3-4.8-0.5-9.6-0.8-14.4c-0.1-1.6,0.5-2.1,2.1-2.2c5.9-0.2,11.8-0.4,17.7-0.7c1.6-0.1,2.4,0.3,2.4,2.1c0,4.9,0.2,9.8,0.5,14.7
	c0.2,3-1.1,4.6-4.1,4.9c-1.5,0.1-3.1,0.1-2.9,2.2c0.2,1.8,1.8,1.6,3.1,1.6c6.1-0.2,12.2-0.5,18.3-0.7c1.5-0.1,3.1-0.1,3.1-2.1
	c-0.1-1.7-1.6-1.7-3-1.8c-3.7-0.3-4.5-1-4.7-4.6c-0.5-12.4-1-24.9-1.5-37.3c-0.1-4.1,0.6-4.8,4.6-5.3c1.1-0.1,2.6,0.2,2.5-1.7
	c-0.1-1.8-1.3-2.1-2.8-2c-6.2,0.2-12.4,0.4-18.6,0.7c-1.4,0.1-3.2-0.1-3.3,1.9c-0.1,2.1,1.7,1.9,3.1,2c3.1,0.1,4.6,1.6,4.6,4.8
	c0,4.5,0.3,9,0.5,13.4c0.1,1.4-0.1,2.2-1.9,2.2c-5.9,0.1-11.8,0.4-17.7,0.7c-1.8,0.1-2.3-0.5-2.3-2.2c-0.1-4.3-0.3-8.6-0.4-12.8
	c-0.1-4.6,0.1-4.9,4.8-5.7c1.2-0.2,2.3-0.4,2.2-1.9c-0.1-1.6-1.3-1.9-2.6-1.9C292.4,127,289.3,127.2,286.1,127.3z M504.1,292.7
	c-0.1-2,0.8-2.8,2.1-3.4c4.8-2.3,9.6-4.5,14.3-6.9c1.4-0.7,1.9-0.3,2.5,1c2.5,5.5,5,10.9,7.7,16.3c0.7,1.5,0.4,2.1-1,2.7
	c-4.1,1.8-8.1,3.8-12.2,5.7c-4.5,2-4.7,2-7.6-2.2c-0.8-1.1-1.6-1.6-2.8-1c-1.2,0.6-1.1,1.6-0.6,2.6c2.8,6.1,5.7,12.2,8.6,18.2
	c0.5,1.1,1.3,1.9,2.7,1.3c1.3-0.6,1.2-1.6,0.9-2.8c-1.5-4.7-1.3-5.1,3.1-7.2c10.6-5,21.2-10,31.8-15c5-2.4,5.2-2.3,8.2,2.5
	c0.4,0.6,0.6,1.7,1.7,1.1c0.8-0.4,1.7-0.9,1.6-2c-0.1-0.8-0.4-1.6-0.7-2.3c-2.5-5.3-5-10.7-7.6-16c-0.6-1.3-1.1-3.3-3.2-2.4
	c-1.8,0.8-1,2.4-0.5,3.7c1.1,2.8,0.2,4.6-2.5,5.8c-4.1,1.8-8.2,3.7-12.1,5.8c-1.8,0.9-2.4,0.3-3.2-1.3c-2.3-5.2-4.7-10.4-7.3-15.5
	c-1-2-0.4-2.6,1.3-3.4c3.7-1.6,7.4-3.5,11.1-5.2c4.3-2,4.7-1.9,7.3,2.2c0.8,1.2,1.6,2,3,1.2c1.2-0.7,1-1.8,0.5-3
	c-2.8-5.9-5.6-11.8-8.4-17.7c-0.5-1.1-1.3-2.3-2.8-1.6c-1.4,0.6-1.1,1.9-0.8,3.1c1.3,4.4,1.3,4.7-2.8,6.6
	c-10.8,5.2-21.7,10.3-32.6,15.4c-4.5,2.1-4.6,2-7.5-2.2c-0.7-1.1-1.5-1.7-2.8-1c-1.2,0.6-1,1.7-0.6,2.7c0.5,1.2,1.1,2.4,1.7,3.6
	c2.2,4.7,4.4,9.4,6.7,14.1c0.6,1.2,1.1,2.6,2.9,1.9c1.8-0.7,1-2.1,0.7-3.4C504.5,294.1,504.3,293.2,504.1,292.7z M131.6,289.4
	c0-12.8-7.2-22.3-19.1-26.2c-12.2-4-22.1-1-29.4,9c-1.6,2.1-3,4.4-4.1,6.8c-3.4,7.3-6.6,14.7-9.9,22c-0.5,1.2-1.2,2.6,0.4,3.5
	c1.9,1,2.5-0.7,3.1-1.9c1.2-2.6,3-3.4,5.7-2.2c11.7,5.2,23.4,10.3,35.2,15.5c2.7,1.2,3.6,3.1,2.4,5.9c-0.6,1.2-1.2,2.6,0.5,3.4
	c1.9,0.8,2.4-0.8,3-2.1c3.1-7.1,6.2-14.1,9.3-21.2C130.6,297.4,131.5,293,131.6,289.4z M145.7,572.8c0,14.6,11.7,26.2,26.5,26.3
	c15.2,0.1,29-13.8,29.1-29.2c0.1-15.2-11.5-26.9-26.5-26.9C159.3,543,145.7,556.9,145.7,572.8z M163.6,237c0,1.5-0.1,3-1,4.1
	c-2.9,3.9-5.9,7.8-9,11.6c-0.8,1.1-1.8,1-2.9,0.1c-4.3-3.4-8.6-6.8-13-10.2c-1.1-0.8-1.1-1.4-0.3-2.4c1.9-2.2,3.6-4.4,5.4-6.7
	c3.2-3.9,3.9-4,8.5-1.8c1.1,0.5,1.9,1.1,2.8-0.4c0.8-1.3,0.3-2.1-0.6-2.9c-3.9-3.1-7.8-6.2-11.7-9.3c-1.2-1-2.4-1.6-3.7,0
	c-1.3,1.6,0.2,2.2,1,2.9c2.2,2.1,2.6,4.3,0.7,6.7c-2.1,2.8-4.2,5.5-6.3,8.2c-0.8,1-1.4,1.2-2.5,0.3c-3.7-3-7.5-6-11.3-8.9
	c-1.1-0.9-1.3-1.6-0.3-2.7c2.5-3,4.8-6.1,7.2-9.1c3.5-4.3,4.7-4.6,9.9-2.4c0.9,0.4,1.8,1.2,2.7,0c0.8-1.2,0.2-2.1-0.8-2.9
	c-1.9-1.5-3.9-2.9-5.7-4.6c-2.1-2-3.6-1.8-5.4,0.5c-7.2,9.3-14.5,18.4-21.7,27.7c-0.8,1.1-1.9,2.2-0.6,3.4c1.3,1.2,2.5,0.3,3.3-0.9
	c1.9-2.7,3.9-2.5,6.4-0.6c9.7,7.8,19.5,15.4,29.3,23.1c2.4,1.9,2.7,3.9,0.8,6.3c-0.9,1.1-1.7,2.3-0.2,3.4c1.5,1.1,2.4-0.2,3.2-1.2
	c7.5-9.5,15-19.1,22.6-28.6c1-1.3,1.3-2.3,0.2-3.8c-2-2.8-3.8-5.8-5.7-8.7c-0.7-1.1-1.4-2.1-2.9-1.2c-1.4,0.8-1,1.9-0.6,3.2
	C162.5,231.8,163.6,234.3,163.6,237z M507,213c-9.1,0-15,5.3-15.7,13c-0.2,2.6,0.1,5.1,0.5,7.6c0.9,5.5,2.5,10.9,2.9,16.5
	c0.2,3.2-0.8,5.9-3.8,7.4c-3,1.6-5.8,0.8-8.3-1c-6-4.3-7.5-12.5-3.4-18.7c0.7-1,1.4-2,2.1-3c0.6-0.8,0.5-1.4-0.1-2.2
	c-0.7-0.8-1.6-1.2-2.4-0.5c-4.4,3.7-8.7,7.4-13,11.1c-0.8,0.7-0.6,1.7,0,2.5c0.4,0.6,0.9,1.3,1.7,0.8c2.2-1.5,2.8,0.1,3.5,1.7
	c0.7,1.5,1.3,3,1.9,4.5c2.7,5.8,6.9,10.2,13.1,12.1c11.5,3.4,21.1-5.6,19.3-17.9c-1-6.7-3.3-13.1-3.8-19.8c-0.2-3,0.6-5.5,3.5-6.8
	c2.9-1.3,5.6-0.6,8,1.3c4.2,3.4,5.6,9.9,3.1,14.7c-0.9,1.8-2.2,3.5-3.3,5.1c-0.5,0.8-1.2,1.4-0.3,2.4c0.9,0.9,2,1.2,3,0.4
	c4.2-3.5,8.4-7.2,12.5-10.8c0.8-0.7,1-1.6,0.4-2.5c-0.5-0.7-1-1.5-2.2-0.9c-1.8,0.9-2.5-0.1-3.1-1.7c-0.6-1.8-1.3-3.6-2.2-5.3
	C517.7,216.8,512.8,213.1,507,213z M333.8,596.1c3-0.8,3.7,1.7,4.1,4.2c2.1,12.5,4,24.9,6,37.4c0.5,2.9-0.5,4.8-3.5,5.3
	c-1.3,0.2-2.5,0.7-2.1,2.3c0.4,1.6,1.8,1.4,3,1.2c11.2-1.8,22.4-3.5,33.5-5.3c1.1-0.2,2.2-0.4,2.5-1.8c0.6-4,1.2-8.1,1.7-12.1
	c0.1-0.8,0-1.7-1.1-1.9c-1-0.2-1.8,0.1-2.2,1.1c-0.8,2-1.7,3.9-2.5,5.9c-1,2.2-2.6,4-5.1,4.5c-4.1,0.8-8.2,1.4-12.4,2
	c-1.6,0.3-2.4-0.3-2.7-2c-0.7-4.3-1.5-8.6-2.2-13c-0.8-5.1-0.8-5.1,4.5-6c1.2-0.2,2.4-0.4,3.6-0.6c5-0.9,5.9-0.3,7.6,4.2
	c0.4,1,0.4,2.3,2.1,2c1.7-0.3,1.7-1.5,1.5-2.8c-0.8-5-1.6-10.1-2.4-15.1c-0.2-1.3-0.7-2.4-2.4-2.2c-1.7,0.3-1.2,1.6-1.2,2.6
	c0,3.9-0.8,5.1-4.6,5.9c-2.7,0.6-5.4,0.8-8.1,1.4c-1.6,0.3-2.3-0.1-2.5-1.7c-0.7-4.7-1.4-9.5-2.2-14.2c-0.3-1.8,0.4-2.4,2-2.6
	c3-0.4,6-1,9.1-1.4c6.6-0.9,6.6-0.9,9.6,5.1c0.4,0.8,0.5,1.9,1.8,1.6c1.3-0.3,1.5-1.3,1.3-2.4c-0.4-2.7-1-5.4-1.3-8.1
	c-0.2-2.5-1.4-2.9-3.7-2.6c-10.9,1.8-21.7,3.5-32.6,5.2c-1.3,0.2-2.9,0.3-2.8,2.1C330.3,596.6,331.9,596.2,333.8,596.1z
	 M184.8,207.8c-0.1-1.2,0.7-1.7,1.5-2.2c2.2-1.4,4.4-2.9,6.7-4.4c2.5-1.6,5.1-4.6,7.4-4.4c2.8,0.3,5.5,3.2,8.1,5.1
	c3.1,2.3,3.1,2.9,0.4,5.6c-0.7,0.8-1.5,1.4-0.6,2.5c0.8,1,1.8,1.3,2.9,0.6c0.9-0.6,1.9-1.2,2.8-1.8c4.3-2.8,8.5-5.6,12.8-8.4
	c1-0.7,1.7-1.5,0.8-2.8c-0.5-0.8-1-1.6-2.1-0.9c-3.1,2-5.8,0.7-8.5-1.1c-9.9-6.8-19.9-13.6-29.8-20.3c-3.9-2.6-7.7-5.3-11.6-8
	c-0.9-0.6-1.7-0.9-2.8-0.1c-1,0.7-1,1.4-0.8,2.4c0.3,1.7,0.6,3.4,0.9,5.1c2.8,15.2,5.6,30.5,8.3,45.7c0.4,2.2,0.2,4.3-1.5,6
	c-0.8,0.9-2,1.7-0.7,3.1c1.2,1.3,2.4,0.8,3.5,0c3.5-2.3,7-4.6,10.5-6.9c1.3-0.8,2.8-1.6,1.6-3.6c-1.2-2.1-2.4-0.4-3.6,0
	c-1.8,0.7-3.5,1.3-4.1-1.2C186.2,214.6,185.5,211.2,184.8,207.8z M442.2,609.1c-0.5-3.8-1-7.4-1.5-11.1c-0.1-1-0.6-1.8-1.7-1.7
	c-0.9,0.1-1.7,0.6-1.8,1.7c-0.1,1-0.1,2-0.2,3.1c-0.3,4-1.7,7.3-5.5,9.2c-3.2,1.6-6.4,3.1-9.6,4.8c-1.9,1-3,0.4-3.8-1.4
	c-2.1-4.3-4.1-8.6-6.3-12.9c-0.7-1.3-0.5-2,0.9-2.6c2.6-1.2,5.2-2.4,7.7-3.7c2.8-1.4,5-1.1,6.8,1.7c0.6,0.9,1.2,2.4,2.8,1.3
	c1.5-0.9,1-2,0.4-3.2c-2-4-4-8-5.9-12.1c-0.6-1.2-1.3-2.1-2.8-1.6c-1.9,0.7-1,2-0.6,3c1.1,2.8,0.1,4.8-2.4,6.1
	c-2.7,1.4-5.5,2.7-8.2,4.2c-1.3,0.7-1.9,0.5-2.6-0.8c-1.9-4-3.8-7.9-5.8-11.8c-0.7-1.3-0.5-2,0.8-2.6c3-1.4,5.9-2.8,8.8-4.3
	c5.8-2.8,5.9-2.8,10.5,1.7c0.6,0.6,1.1,1.5,2.3,0.7c0.9-0.7,1-1.4,0.5-2.4c-1.2-2.4-2.4-4.9-3.7-7.4c-0.7-1.4-1.7-1.9-3.2-1.1
	c-10.3,5.1-20.7,10.1-31,15.2c-1,0.5-2.1,1.2-1.5,2.6c0.6,1.3,1.8,1.3,2.8,0.7c3.1-1.9,4.9-0.5,6.2,2.3c4.9,10.2,9.8,20.3,15,30.4
	c1.5,2.9,0.9,4.8-1.8,6.3c-1.1,0.6-2.1,1.2-1.4,2.6c0.8,1.5,2,1,3.1,0.4c10.3-5.1,20.6-10.2,31-15.3
	C441.6,610.8,442.5,610.3,442.2,609.1z M123.4,549c1-0.1,2-0.1,3.1-0.2c1-0.1,2-0.2,2-1.7c-0.1-1.3-0.5-2.1-1.9-2.1
	c-1.7,0-3.5-0.2-5.2-0.4c-11.2-1-18.9-13.7-14.5-24c3.8-8.9,17.6-17.8,27.2-17.7c9.2,0.2,16.8,9.4,15.2,18.4
	c-0.6,3.4-2.3,6.3-4.3,9.1c-0.6,0.9-1.7,1.7-0.4,2.9c1.2,1.1,2.2,0.6,3.2-0.2c4-3.2,7.9-6.4,11.9-9.6c0.6-0.5,1.8-0.9,1.1-2.1
	c-0.6-1-1.2-1.9-2.6-1.5c-2.7,0.9-3.3-0.6-3.7-2.9c-1.1-7.5-5.1-13.2-11.2-17.5c-13.6-9.5-33.3-4.4-42.2,10.9
	c-4.9,8.5-4.8,17.1,0.1,25.6C106,544.4,113.3,549,123.4,549z M251.3,596.3c-0.1,0.9-0.2,1.8,1,2.2c1.1,0.3,1.8-0.3,2.2-1.2
	c1.3-2.6,2.4-5.2,3.8-7.7c1.1-2.1,0.6-3.3-1.5-4.3c-10.3-4.9-20.5-9.9-30.8-14.8c-1.2-0.6-2.8-1.7-3.8,0.1c-1,1.7,0.5,2.5,1.8,3.2
	c2.1,1.2,3.3,2.7,2.1,5.2c-5.7,11.7-11.3,23.5-17,35.2c-1.2,2.5-3,3.5-5.7,2.1c-1.3-0.7-2.8-1.2-3.6,0.7c-0.7,1.8,0.9,2.3,2.1,2.8
	c5.3,2.6,10.6,5.1,16,7.7c1.3,0.6,2.9,1.8,4-0.1c1-1.8-0.8-2.4-1.9-3.2c-2.5-1.5-3.3-3.3-1.8-6.1c1.5-2.7,2.6-5.5,3.9-8.3
	c3.6-7.6,3.6-7.6,11.2-3.5c3.3,1.7,3.8,2.9,2.7,6.4c-0.4,1.2-1.5,2.5,0.5,3.3c1.9,0.7,2.5-0.7,3.2-2c2-4.1,4-8.3,6-12.4
	c0.6-1.3,1.3-2.6-0.4-3.7c-1.9-1.2-2.3,0.6-3,1.5c-1.8,2.6-4,3.3-6.8,1.7c-1.9-1-3.8-1.9-5.8-2.8c-1.4-0.6-1.5-1.3-0.8-2.6
	c2.2-4.3,4.2-8.6,6.2-12.9c0.7-1.5,1.4-1.6,2.8-0.9c2.4,1.3,4.9,2.5,7.4,3.6C250,587.7,253,590.7,251.3,596.3z M277.8,591.3
	c-1.4,0.4-3.8-1.3-4.3,1.3c-0.5,2.8,2.2,2.1,3.6,2.5c2.1,0.7,3.3,1.8,3.1,4.2c-1.1,12.5-2.2,25-3.4,37.4c-0.4,4.4-0.8,4.5-5.1,4.6
	c-1.4,0-2.6,0.3-2.6,1.9c-0.1,1.4,1.1,1.8,2.3,1.9c6.3,0.5,12.6,1.1,18.9,1.6c1.3,0.1,2.9,0.3,3.1-1.5c0.3-1.9-1.3-1.9-2.6-2.2
	c-3.7-0.8-4.4-1.7-4.2-5.4c0.2-3.4,0.6-6.7,0.9-10c0.7-6.6,0.7-6.6,7.4-5.9c5.7,0.6,5.8,0.6,6.5,6.2c0.2,1.4,0.8,1.7,2,1.8
	c1.1,0.1,1.7-0.4,1.8-1.6c0.4-5.3,0.9-10.6,1.3-15.8c0.1-1.3-0.4-2.1-1.8-2.4c-1.4-0.3-1.6,0.7-2,1.7c-1.7,4.7-2.3,5.1-7.4,4.6
	c-1.6-0.1-3.2-0.3-4.9-0.4c-1.4-0.1-1.9-0.7-1.7-2.2c0.5-4.6,0.8-9.1,1.1-13.7c0.1-1.8,0.6-2.6,2.6-2.2c2.2,0.4,4.5,0.6,6.7,0.6
	c5.7,0,10,1.7,10.9,8.2c0.1,1.2,1,1.4,2,1.4c1.1,0,1.2-0.8,1.3-1.7c0.2-2.9,0.4-5.9,0.7-8.8c0.2-2.2-0.7-3-2.9-3.2
	C300,593.3,289,592.3,277.8,591.3z M256.6,185c-2-0.1-2.9-1.4-3.5-2.8c-4.5-12.4-9-24.9-13.5-37.3c-0.3-0.8-0.5-1.4,0.5-2
	c5.8-3.8,10.8-3.1,15,2.3c0.5,0.7,0.9,1.7,2.1,1.1c1.1-0.6,1.3-1.6,0.9-2.6c-1.1-3.2-2.3-6.3-3.4-9.5c-0.6-1.5-1.5-2-3.1-1.4
	c-12.8,4.6-25.7,9.2-38.5,13.8c-1.5,0.5-2,1.5-1.5,3.1c1.1,3,2.1,5.9,3.2,8.9c0.4,1.3,1.1,2.2,2.6,1.9c1.8-0.4,1.3-1.7,1.2-2.9
	c-0.4-5.6,0.3-6.8,5.6-9c1-0.4,2.1-0.7,3.1-1.2c1.7-0.9,2.6-0.5,3.3,1.4c4.1,11.8,8.4,23.6,12.5,35.4c1.6,4.5,1.5,4.7-2.7,6.8
	c-1.1,0.6-2.1,1.1-1.6,2.5c0.5,1.5,1.8,1.5,3,1c3.2-1.1,6.3-2.3,9.5-3.4c3-1.1,6-2.1,8.9-3.2c1.1-0.4,2-1.2,1.6-2.6
	c-0.4-1.4-1.6-1.3-2.8-1C258.2,184.5,257.3,184.8,256.6,185z M512.2,552.3c0.1-2.4-0.5-5.1-1.2-7.8c-0.3-1.1-0.6-2-2-1.6
	c-1.4,0.3-1.7,1.1-1.5,2.4c0.3,1.7,0.5,3.4,0.6,5.2c0.9,11.4-11.1,20.4-21.7,16c-8.1-3.4-14-9.4-17.4-17.6
	c-2.2-5.3-1.3-10.4,2.6-14.8c4-4.5,9-6.2,14.9-4.5c1.5,0.4,2.9,1,4.3,1.5c0.9,0.3,1.8,1.1,2.7-0.2c0.8-1.3,0.1-2.1-0.9-2.8
	c-3.6-3-7.3-5.9-10.9-8.9c-0.6-0.5-1.2-1.4-2.1-0.6c-0.8,0.7-1.6,1.4-1,2.6c1.4,2.4,0,3.2-2,4c-4.2,1.6-7.7,4.2-10.4,7.8
	c-10.6,14.2-3.8,34.8,13.7,41.3C495.2,579.9,512.3,568.4,512.2,552.3z M491.3,192c-0.1-1-0.8-1.6-1.5-2.2
	c-4.9-4.2-9.7-8.3-14.6-12.5c-1-0.9-2.1-2-3.4-0.7c-1.5,1.4-0.3,2.5,0.7,3.6c2.9,3.4,3,3.5,0.1,6.9c-8.2,9.7-16.5,19.4-24.8,29
	c-2.7,3.2-3.5,3.1-6.9,0.8c-1.2-0.8-2.3-1.6-3.4-0.2c-1.1,1.4,0,2.4,1.1,3.3c4.9,4.2,9.7,8.4,14.6,12.5c1,0.9,2.1,2,3.4,0.6
	c1.4-1.5,0.2-2.5-0.8-3.6c-2.8-3.2-2.9-3.6-0.1-6.9c7.8-9.2,15.6-18.3,23.4-27.4c3.9-4.5,3.9-4.5,9.1-1.7
	C489.6,194.3,491.3,193.5,491.3,192z M531.2,512.7c-0.1-9.9-9.3-18.6-19.5-18.5c-9.4,0.1-16.3,7.5-16.4,17.7
	c-0.1,8.5,9.7,17.3,19.3,17.3C523.9,529.2,531.2,521.8,531.2,512.7z M526.1,541.1c1.1-0.4,1.4-1.3,1.9-2c5.8-9,11.6-17.9,17.3-26.9
	c0.5-0.8,1.8-1.7,0.3-2.8c-1.7-1.1-1.9,0.6-2.4,1.4c-4.7,7.2-9.4,14.5-14,21.8c-1.3,2-2.7,4.1-3.9,6.2c-0.3,0.5-0.8,1-0.3,1.6
	C525.3,540.7,525.8,540.9,526.1,541.1z M556.7,488c-0.1-4.2-3.2-7.5-7.2-7.5c-4.5,0-8.2,4.1-8.1,8.9c0.1,4.2,3.2,7.6,7.2,7.5
	C552.9,496.9,556.8,492.7,556.7,488z"/>
<path class="st1" d="M315,578.5c-106.1-0.1-192.1-86.3-192.1-192.4C123,280,209.2,193.9,315.4,194c106.2,0.1,192.3,86.4,192.1,192.8
	C507.3,492.7,421.1,578.6,315,578.5z M501.3,386.1c-0.2-102.7-83.5-186-186.2-186c-102.7,0-186.3,83.7-186.2,186.3
	c0.2,102.7,83.5,186,186.2,186C417.9,572.4,501.5,488.7,501.3,386.1z"/>
<path class="st1" d="M103.9,403.7c-0.3,3.9-0.6,8.2-1.3,12.4c-1,5.4-3.8,9.6-7.9,13c-5.6,4.7-16.7,4.1-22.6-1.5
	c-6.5-6.1-10.1-13.8-12-22.5c-3-13.5,0.3-25.7,6.8-37.4c1.5-2.7,3.7-4.9,6.1-6.7c2.2-1.6,4.7-2.8,7.4-2.5c3.3,0.3,6.2,2.2,9.4,3
	c3.6,0.9,5.3,4.5,6.8,7.8C101.6,379.9,104.2,392,103.9,403.7z M88.5,366.2c-0.3,3.1-1.4,6.1-0.3,9.1c1,3,0.9,6,0.4,9
	c-1.5,9.7-2.1,19.5,0.2,29.2c0.6,2.8,1.1,5.6,0.3,8.5c-0.2,0.7-0.7,1.7,0.3,2.1c1.1,0.4,1.6-0.6,2.1-1.4c1.7-2.7,1.1-5.5,0.2-8.3
	c-1.3-3.9-1.3-7.8-0.7-11.8c0.9-6.6,1.7-13.1,1.4-19.8C92.1,377.2,91.1,371.5,88.5,366.2z"/>
<path class="st1" d="M531.4,405.2c-0.5-12.7,3.2-24,8-35c2-4.5,5.1-7.6,10.5-8.7c3-0.6,5.6-2,8.7-0.7c3.4,1.5,5.7,4.2,7.6,7.3
	c10.7,17.1,9.7,41.4-2.4,57.4c-3.6,4.7-7.9,8.2-14.3,8.1c-8.3-0.1-14.3-4.7-16.5-12.7C531.6,415.6,531.4,410.2,531.4,405.2z
	 M546.5,367.7c-0.2,0.5-0.5,1.1-0.7,1.6c-3.1,8.3-3.6,16.9-3,25.6c0.5,8.1,1.9,16.2-1,24.2c-0.9,2.5-0.2,5.2,2.5,6.9
	c0.9-0.8,0.7-1.7,0.5-2.6c-0.5-2.3-0.3-4.7,0.2-7c2.4-10,2.7-20.1,1.2-30.3c-0.3-2.4-0.8-4.9,0.1-7.3
	C547.7,375.1,547.2,371.4,546.5,367.7z"/>
<path class="st1" d="M401,177.6c4.8-4.9,9.7-9.6,14.2-14.6c2.9-3.2,2-12.5-1-15.5c-0.7-0.8-1.5-1.5-0.7-2.6c0.7-1,1.7-1.1,2.7-0.6
	c5.5,2.7,11,5.3,16.5,8c1,0.5,1.7,1.3,1.2,2.5c-0.6,1.3-1.7,1.4-2.8,0.8c-2.9-1.4-4.1,0-4.6,2.7c-1.7,9.9-2.4,20-3.6,29.9
	c1,0.2,1.3-0.4,1.7-0.8c6.4-6.4,12.9-12.8,19.2-19.3c3.2-3.2,3.1-3.6-0.2-6.3c-0.8-0.7-1.6-1.4-1-2.5c0.7-1.2,1.6-1.3,2.9-0.7
	c3.9,1.9,7.9,3.8,11.8,5.7c1.2,0.6,1.9,1.5,1.4,3c-0.6,1.5-1.6,1.1-2.7,0.7c-2.5-0.9-4.3,0.5-6,2.1c-6.3,6.2-12.6,12.5-18.9,18.7
	c-4.9,4.8-9.7,9.7-14.6,14.4c-0.9,0.9-1.6,2.4-3.5,1.4c-1.9-0.9-1.2-2.4-1.1-3.7c0.8-8.2,1.7-16.4,2.6-24.6c0.1-1.3,0.5-2.5,0.1-3.9
	c-1.4,0-1.9,1.2-2.7,1.9c-6.2,6-12.3,12-18.4,17.9c-0.8,0.8-1.4,2.3-3.2,1.4c-1.9-0.9-1.3-2.4-1.2-3.7c1.3-12.7,2.7-25.3,4.1-38
	c0.3-3.2,0.7-6.5,1-9.7c0.2-2.2-0.1-4.1-2.2-5.3c-1.2-0.7-1.8-1.8-0.9-3.1c0.8-1.2,2-0.7,3-0.2c4.9,2.4,9.7,4.7,14.6,7.1
	c1.2,0.6,2.3,1.3,1.7,2.8c-0.6,1.5-1.8,1.4-3.1,0.9c-2.7-1.1-3.5,0.6-3.8,2.8c-1,8.1-1.9,16.2-2.9,24.3c-0.2,1.9-0.4,3.8-0.6,5.8
	C400.5,177.2,400.8,177.4,401,177.6z"/>
<path class="st1" d="M286.1,127.3c3.2-0.2,6.3-0.3,9.5-0.5c1.3-0.1,2.5,0.2,2.6,1.9c0.1,1.5-1,1.7-2.2,1.9c-4.7,0.8-4.9,1.1-4.8,5.7
	c0.1,4.3,0.3,8.6,0.4,12.8c0,1.7,0.5,2.3,2.3,2.2c5.9-0.4,11.8-0.6,17.7-0.7c1.8,0,2-0.8,1.9-2.2c-0.2-4.5-0.5-9-0.5-13.4
	c0-3.2-1.5-4.6-4.6-4.8c-1.4-0.1-3.2,0.2-3.1-2c0.1-2,1.9-1.8,3.3-1.9c6.2-0.3,12.4-0.5,18.6-0.7c1.5-0.1,2.7,0.2,2.8,2
	c0.1,2-1.4,1.6-2.5,1.7c-3.9,0.5-4.7,1.2-4.6,5.3c0.4,12.4,0.9,24.9,1.5,37.3c0.2,3.6,1,4.3,4.7,4.6c1.4,0.1,3,0.1,3,1.8
	c0.1,2-1.6,2-3.1,2.1c-6.1,0.2-12.2,0.5-18.3,0.7c-1.3,0.1-2.9,0.2-3.1-1.6c-0.2-2.1,1.4-2.1,2.9-2.2c3-0.2,4.3-1.8,4.1-4.9
	c-0.3-4.9-0.5-9.8-0.5-14.7c0-1.8-0.8-2.2-2.4-2.1c-5.9,0.3-11.8,0.6-17.7,0.7c-1.6,0-2.2,0.5-2.1,2.2c0.3,4.8,0.4,9.6,0.8,14.4
	c0.3,3.9,0.9,4.5,4.8,4.9c1.3,0.1,2.9-0.1,3,1.8c0,2-1.7,1.9-3.1,2c-6.1,0.3-12.2,0.5-18.3,0.8c-1.5,0.1-3.2,0.1-3.3-1.8
	c-0.1-1.7,1.4-2,2.8-2c3-0.1,4.4-1.7,4.3-4.7c-0.6-12.9-1.1-25.9-1.7-38.8c-0.1-2.4-1.4-3.5-3.7-3.6c-0.6,0-1.2-0.1-1.8-0.2
	c-1.2-0.2-2.2-0.6-2.1-2.1c0.1-1.3,1.1-1.6,2.2-1.6C279.2,127.6,282.6,127.5,286.1,127.3C286.1,127.3,286.1,127.3,286.1,127.3z"/>
<path class="st1" d="M504.1,292.7c0.1,0.5,0.4,1.4,0.6,2.3c0.4,1.3,1.1,2.7-0.7,3.4c-1.7,0.7-2.3-0.7-2.9-1.9
	c-2.2-4.7-4.4-9.4-6.7-14.1c-0.6-1.2-1.2-2.4-1.7-3.6c-0.4-1-0.5-2.1,0.6-2.7c1.2-0.6,2,0,2.8,1c2.9,4.2,3,4.3,7.5,2.2
	c10.9-5.1,21.7-10.2,32.6-15.4c4-1.9,4.1-2.3,2.8-6.6c-0.4-1.3-0.7-2.5,0.8-3.1c1.5-0.7,2.2,0.5,2.8,1.6c2.8,5.9,5.6,11.8,8.4,17.7
	c0.5,1.1,0.7,2.3-0.5,3c-1.3,0.8-2.2,0-3-1.2c-2.6-4.1-3-4.2-7.3-2.2c-3.7,1.7-7.3,3.5-11.1,5.2c-1.7,0.8-2.3,1.4-1.3,3.4
	c2.6,5.1,5,10.3,7.3,15.5c0.7,1.6,1.4,2.2,3.2,1.3c4-2.1,8-4,12.1-5.8c2.8-1.2,3.6-3.1,2.5-5.8c-0.5-1.3-1.4-2.9,0.5-3.7
	c2-0.9,2.5,1.1,3.2,2.4c2.5,5.3,5.1,10.7,7.6,16c0.3,0.7,0.6,1.5,0.7,2.3c0.1,1.1-0.8,1.5-1.6,2c-1.2,0.6-1.3-0.4-1.7-1.1
	c-3-4.8-3.1-4.9-8.2-2.5c-10.6,5-21.2,10-31.8,15c-4.5,2.1-4.6,2.5-3.1,7.2c0.4,1.2,0.4,2.3-0.9,2.8c-1.3,0.6-2.1-0.2-2.7-1.3
	c-2.9-6.1-5.7-12.1-8.6-18.2c-0.5-1-0.5-2.1,0.6-2.6c1.2-0.6,2-0.1,2.8,1c2.9,4.2,3.1,4.2,7.6,2.2c4.1-1.8,8.1-3.9,12.2-5.7
	c1.4-0.6,1.8-1.2,1-2.7c-2.6-5.4-5.2-10.8-7.7-16.3c-0.6-1.3-1.2-1.7-2.5-1c-4.7,2.3-9.5,4.6-14.3,6.9
	C504.9,289.9,504,290.7,504.1,292.7z"/>
<path class="st1" d="M131.6,289.4c-0.1,3.6-1,8.1-2.8,12.3c-3.1,7.1-6.2,14.2-9.3,21.2c-0.6,1.3-1.2,2.9-3,2.1
	c-1.8-0.7-1.1-2.1-0.5-3.4c1.3-2.8,0.4-4.7-2.4-5.9c-11.7-5.2-23.5-10.3-35.2-15.5c-2.7-1.2-4.5-0.4-5.7,2.2
	c-0.6,1.2-1.2,2.9-3.1,1.9c-1.6-0.9-0.9-2.3-0.4-3.5c3.3-7.3,6.5-14.7,9.9-22c1.1-2.4,2.5-4.7,4.1-6.8c7.3-10,17.2-13,29.4-9
	C124.4,267.1,131.6,276.6,131.6,289.4z M125.1,293.4c0-5.1-2.2-9.9-6.4-13.7c-3.6-3.4-8-5.6-12.8-6.8c-12-2.9-22.1,3.3-24.9,15.4
	c-0.4,1.5-0.2,2.4,1.4,3.1c11.8,5.1,23.5,10.2,35.2,15.5c1.6,0.7,2.4,0.4,3.3-0.9C123.4,302.3,124.9,298.4,125.1,293.4z"/>
<path class="st1" d="M145.7,572.8c0-15.8,13.7-29.8,29.1-29.9c15,0,26.6,11.7,26.5,26.9c-0.1,15.4-13.9,29.3-29.1,29.2
	C157.4,599,145.7,587.4,145.7,572.8z M168.1,592.6c1.9,0.1,4-0.4,5.9-1.5c10.1-5.9,16.8-14.5,19.2-26c1.1-5.3-1.5-9.8-5.8-13
	c-4-3.1-8.6-3.9-13.2-1.6c-11,5.4-17.7,14.4-20.1,26.2C152.4,585.1,159.3,592.7,168.1,592.6z"/>
<path class="st1" d="M163.6,237c0-2.7-1.1-5.2-2-7.6c-0.4-1.2-0.9-2.3,0.6-3.2c1.5-0.8,2.2,0.1,2.9,1.2c1.9,2.9,3.7,5.9,5.7,8.7
	c1.1,1.5,0.8,2.5-0.2,3.8c-7.6,9.5-15.1,19-22.6,28.6c-0.8,1-1.7,2.3-3.2,1.2c-1.5-1.1-0.7-2.3,0.2-3.4c1.9-2.4,1.6-4.4-0.8-6.3
	c-9.8-7.7-19.6-15.4-29.3-23.1c-2.4-1.9-4.5-2.1-6.4,0.6c-0.8,1.1-2,2.1-3.3,0.9c-1.4-1.2-0.3-2.4,0.6-3.4
	c7.3-9.2,14.6-18.4,21.7-27.7c1.8-2.3,3.3-2.5,5.4-0.5c1.8,1.7,3.8,3.1,5.7,4.6c1,0.8,1.5,1.7,0.8,2.9c-0.8,1.3-1.8,0.4-2.7,0
	c-5.2-2.2-6.4-1.9-9.9,2.4c-2.4,3-4.8,6.1-7.2,9.1c-0.9,1.1-0.8,1.8,0.3,2.7c3.8,2.9,7.6,5.9,11.3,8.9c1.1,0.9,1.7,0.7,2.5-0.3
	c2.1-2.8,4.2-5.5,6.3-8.2c1.9-2.5,1.5-4.7-0.7-6.7c-0.8-0.7-2.3-1.3-1-2.9c1.3-1.5,2.5-0.9,3.7,0c3.9,3.1,7.8,6.2,11.7,9.3
	c1,0.8,1.4,1.6,0.6,2.9c-0.9,1.4-1.7,0.9-2.8,0.4c-4.6-2.2-5.3-2.1-8.5,1.8c-1.8,2.2-3.5,4.5-5.4,6.7c-0.9,1-0.8,1.6,0.3,2.4
	c4.4,3.3,8.7,6.7,13,10.2c1.1,0.9,2.1,0.9,2.9-0.1c3-3.8,6-7.7,9-11.6C163.5,239.9,163.6,238.4,163.6,237z"/>
<path class="st1" d="M507,213c5.8,0.2,10.7,3.9,13.9,10c0.9,1.7,1.6,3.5,2.2,5.3c0.5,1.6,1.3,2.6,3.1,1.7c1.2-0.6,1.7,0.2,2.2,0.9
	c0.6,0.9,0.4,1.8-0.4,2.5c-4.2,3.6-8.3,7.2-12.5,10.8c-1,0.8-2.1,0.6-3-0.4c-0.9-1-0.2-1.6,0.3-2.4c1.1-1.7,2.4-3.3,3.3-5.1
	c2.5-4.8,1.2-11.3-3.1-14.7c-2.4-1.9-5.1-2.6-8-1.3c-2.9,1.3-3.7,3.9-3.5,6.8c0.5,6.7,2.8,13.1,3.8,19.8
	c1.8,12.3-7.8,21.3-19.3,17.9c-6.2-1.9-10.4-6.2-13.1-12.1c-0.7-1.5-1.3-3-1.9-4.5c-0.7-1.5-1.3-3.1-3.5-1.7
	c-0.8,0.5-1.3-0.2-1.7-0.8c-0.6-0.8-0.8-1.8,0-2.5c4.3-3.8,8.6-7.5,13-11.1c0.8-0.7,1.7-0.3,2.4,0.5c0.6,0.7,0.7,1.4,0.1,2.2
	c-0.7,1-1.4,2-2.1,3c-4.1,6.2-2.7,14.3,3.4,18.7c2.6,1.8,5.3,2.6,8.3,1c3-1.6,4-4.2,3.8-7.4c-0.4-5.6-2-11-2.9-16.5
	c-0.4-2.5-0.7-5-0.5-7.6C492,218.3,497.9,212.9,507,213z"/>
<path class="st1" d="M333.8,596.1c-1.8,0.1-3.5,0.5-3.6-1.5c-0.1-1.8,1.4-1.9,2.8-2.1c10.9-1.7,21.8-3.4,32.6-5.2
	c2.3-0.4,3.5,0,3.7,2.6c0.2,2.7,0.8,5.4,1.3,8.1c0.2,1.1,0,2.1-1.3,2.4c-1.3,0.3-1.5-0.8-1.8-1.6c-3-6-3-6-9.6-5.1
	c-3,0.4-6,1-9.1,1.4c-1.6,0.2-2.3,0.8-2,2.6c0.8,4.7,1.5,9.5,2.2,14.2c0.2,1.6,0.9,2,2.5,1.7c2.7-0.6,5.4-0.8,8.1-1.4
	c3.8-0.8,4.7-2,4.6-5.9c0-1.1-0.5-2.4,1.2-2.6c1.7-0.2,2.2,0.9,2.4,2.2c0.8,5,1.6,10.1,2.4,15.1c0.2,1.3,0.1,2.5-1.5,2.8
	c-1.7,0.3-1.7-1-2.1-2c-1.7-4.6-2.6-5.1-7.6-4.2c-1.2,0.2-2.4,0.4-3.6,0.6c-5.3,0.9-5.3,0.9-4.5,6c0.7,4.3,1.5,8.6,2.2,13
	c0.3,1.7,1.1,2.3,2.7,2c4.1-0.7,8.3-1.2,12.4-2c2.5-0.5,4.1-2.3,5.1-4.5c0.9-1.9,1.7-3.9,2.5-5.9c0.4-1.1,1.2-1.3,2.2-1.1
	c1.1,0.2,1.2,1.1,1.1,1.9c-0.5,4-1.1,8.1-1.7,12.1c-0.2,1.5-1.3,1.6-2.5,1.8c-11.2,1.8-22.4,3.5-33.5,5.3c-1.3,0.2-2.6,0.4-3-1.2
	c-0.4-1.6,0.8-2.1,2.1-2.3c3-0.6,4-2.4,3.5-5.3c-2-12.5-4-24.9-6-37.4C337.5,597.9,336.8,595.3,333.8,596.1z"/>
<path class="st1" d="M184.8,207.8c0.7,3.4,1.4,6.8,2.3,10.1c0.6,2.5,2.3,1.9,4.1,1.2c1.1-0.4,2.3-2.2,3.6,0c1.1,2-0.4,2.8-1.6,3.6
	c-3.5,2.3-7,4.6-10.5,6.9c-1.2,0.8-2.4,1.3-3.5,0c-1.3-1.4-0.1-2.2,0.7-3.1c1.7-1.7,1.9-3.8,1.5-6c-2.8-15.2-5.6-30.5-8.3-45.7
	c-0.3-1.7-0.6-3.4-0.9-5.1c-0.2-1-0.1-1.7,0.8-2.4c1-0.7,1.9-0.5,2.8,0.1c3.9,2.7,7.7,5.3,11.6,8c9.9,6.8,19.9,13.5,29.8,20.3
	c2.7,1.8,5.4,3,8.5,1.1c1.2-0.7,1.6,0.1,2.1,0.9c0.8,1.3,0.2,2.1-0.8,2.8c-4.2,2.8-8.5,5.6-12.8,8.4c-0.9,0.6-1.9,1.2-2.8,1.8
	c-1.2,0.7-2.1,0.4-2.9-0.6c-0.9-1.1-0.2-1.8,0.6-2.5c2.7-2.8,2.7-3.4-0.4-5.6c-2.6-1.9-5.2-4.8-8.1-5.1c-2.3-0.2-4.9,2.8-7.4,4.4
	c-2.2,1.4-4.4,2.9-6.7,4.4C185.5,206.1,184.7,206.6,184.8,207.8z M180.2,182.4c1.2,6.2,2.1,11.6,3.2,17c0.2,0.9,0.5,1.6,1.6,0.8
	c3.4-2.3,6.9-4.6,10.7-7.1C190.6,189.5,185.8,186.2,180.2,182.4z"/>
<path class="st1" d="M442.2,609.1c0.3,1.2-0.6,1.6-1.5,2.1c-10.3,5.1-20.6,10.2-31,15.3c-1.1,0.6-2.4,1.1-3.1-0.4
	c-0.7-1.3,0.3-2,1.4-2.6c2.7-1.5,3.3-3.3,1.8-6.3c-5.1-10.1-10-20.3-15-30.4c-1.4-2.8-3.1-4.2-6.2-2.3c-1.1,0.6-2.3,0.7-2.8-0.7
	c-0.6-1.4,0.4-2.1,1.5-2.6c10.3-5.1,20.7-10.1,31-15.2c1.5-0.8,2.5-0.3,3.2,1.1c1.2,2.5,2.4,4.9,3.7,7.4c0.5,1,0.4,1.7-0.5,2.4
	c-1.1,0.9-1.6-0.1-2.3-0.7c-4.6-4.5-4.7-4.5-10.5-1.7c-2.9,1.4-5.8,2.9-8.8,4.3c-1.3,0.6-1.5,1.3-0.8,2.6c2,3.9,4,7.8,5.8,11.8
	c0.6,1.4,1.3,1.5,2.6,0.8c2.7-1.4,5.5-2.8,8.2-4.2c2.5-1.3,3.5-3.3,2.4-6.1c-0.4-1-1.4-2.3,0.6-3c1.5-0.5,2.2,0.4,2.8,1.6
	c1.9,4,3.9,8.1,5.9,12.1c0.6,1.2,1,2.3-0.4,3.2c-1.7,1.1-2.3-0.4-2.8-1.3c-1.7-2.8-4-3.1-6.8-1.7c-2.5,1.3-5.1,2.5-7.7,3.7
	c-1.3,0.6-1.5,1.2-0.9,2.6c2.2,4.3,4.3,8.6,6.3,12.9c0.9,1.8,1.9,2.4,3.8,1.4c3.1-1.7,6.4-3.2,9.6-4.8c3.8-1.9,5.2-5.3,5.5-9.2
	c0.1-1,0.1-2,0.2-3.1c0.1-1.1,0.9-1.7,1.8-1.7c1.1-0.1,1.6,0.7,1.7,1.7C441.2,601.7,441.7,605.3,442.2,609.1z"/>
<path class="st1" d="M123.4,549c-10,0-17.3-4.7-22.2-13.2c-4.8-8.5-5-17-0.1-25.6c8.9-15.3,28.5-20.4,42.2-10.9
	c6.1,4.3,10.1,10,11.2,17.5c0.4,2.3,1,3.8,3.7,2.9c1.4-0.5,2,0.5,2.6,1.5c0.7,1.2-0.4,1.6-1.1,2.1c-3.9,3.2-7.9,6.4-11.9,9.6
	c-1,0.8-2,1.3-3.2,0.2c-1.3-1.2-0.2-2,0.4-2.9c1.9-2.8,3.6-5.7,4.3-9.1c1.6-9-6-18.2-15.2-18.4c-9.7-0.2-23.4,8.8-27.2,17.7
	c-4.4,10.3,3.3,23,14.5,24c1.7,0.2,3.5,0.3,5.2,0.4c1.5,0,1.9,0.8,1.9,2.1c0.1,1.5-1,1.6-2,1.7C125.4,549,124.4,549,123.4,549z"/>
<path class="st1" d="M251.3,596.3c1.6-5.7-1.3-8.7-6.1-10.7c-2.5-1.1-5-2.3-7.4-3.6c-1.4-0.8-2.1-0.6-2.8,0.9
	c-2,4.4-4.1,8.7-6.2,12.9c-0.7,1.3-0.6,2,0.8,2.6c2,0.8,3.9,1.8,5.8,2.8c2.9,1.6,5,0.9,6.8-1.7c0.6-0.9,1.1-2.7,3-1.5
	c1.7,1.1,1.1,2.4,0.4,3.7c-2,4.1-3.9,8.3-6,12.4c-0.6,1.3-1.2,2.7-3.2,2c-2-0.8-0.9-2.1-0.5-3.3c1.1-3.5,0.6-4.6-2.7-6.4
	c-7.5-4-7.5-4-11.2,3.5c-1.3,2.8-2.4,5.6-3.9,8.3c-1.6,2.8-0.7,4.6,1.8,6.1c1.2,0.7,3,1.3,1.9,3.2c-1.1,1.9-2.6,0.7-4,0.1
	c-5.3-2.5-10.7-5.1-16-7.7c-1.1-0.6-2.8-1-2.1-2.8c0.7-1.9,2.2-1.4,3.6-0.7c2.7,1.4,4.5,0.5,5.7-2.1c5.7-11.7,11.3-23.5,17-35.2
	c1.2-2.6,0-4.1-2.1-5.2c-1.3-0.7-2.8-1.5-1.8-3.2c1-1.8,2.5-0.7,3.8-0.1c10.3,4.9,20.5,9.9,30.8,14.8c2.1,1,2.7,2.2,1.5,4.3
	c-1.4,2.5-2.5,5.1-3.8,7.7c-0.4,0.9-1.1,1.5-2.2,1.2C251.1,598.2,251.3,597.2,251.3,596.3z"/>
<path class="st1" d="M277.8,591.3c11.2,1,22.2,2,33.3,2.9c2.2,0.2,3.1,1,2.9,3.2c-0.3,2.9-0.5,5.9-0.7,8.8c-0.1,0.8-0.2,1.7-1.3,1.7
	c-1,0-1.8-0.2-2-1.4c-0.8-6.5-5.1-8.2-10.9-8.2c-2.2,0-4.5-0.2-6.7-0.6c-2-0.4-2.5,0.4-2.6,2.2c-0.3,4.6-0.7,9.1-1.1,13.7
	c-0.2,1.5,0.3,2.1,1.7,2.2c1.6,0.1,3.2,0.3,4.9,0.4c5.1,0.4,5.7,0.1,7.4-4.6c0.4-1,0.6-2,2-1.7c1.4,0.3,1.9,1,1.8,2.4
	c-0.4,5.3-0.9,10.6-1.3,15.8c-0.1,1.1-0.7,1.6-1.8,1.6c-1.1-0.1-1.8-0.4-2-1.8c-0.8-5.6-0.8-5.6-6.5-6.2c-6.7-0.7-6.7-0.7-7.4,5.9
	c-0.3,3.3-0.7,6.7-0.9,10c-0.3,3.7,0.5,4.7,4.2,5.4c1.3,0.3,2.9,0.3,2.6,2.2c-0.2,1.8-1.8,1.6-3.1,1.5c-6.3-0.5-12.6-1.1-18.9-1.6
	c-1.2-0.1-2.4-0.5-2.3-1.9c0.1-1.5,1.2-1.8,2.6-1.9c4.3-0.1,4.7-0.2,5.1-4.6c1.2-12.5,2.2-25,3.4-37.4c0.2-2.4-0.9-3.5-3.1-4.2
	c-1.4-0.5-4.1,0.3-3.6-2.5C274,590.1,276.4,591.7,277.8,591.3z"/>
<path class="st1" d="M256.6,185c0.7-0.2,1.6-0.4,2.5-0.7c1.2-0.3,2.4-0.4,2.8,1c0.4,1.3-0.5,2.1-1.6,2.6c-3,1.1-5.9,2.1-8.9,3.2
	c-3.2,1.1-6.3,2.3-9.5,3.4c-1.3,0.4-2.5,0.5-3-1c-0.5-1.4,0.5-1.9,1.6-2.5c4.2-2.1,4.3-2.3,2.7-6.8c-4.1-11.8-8.4-23.6-12.5-35.4
	c-0.7-1.9-1.5-2.3-3.3-1.4c-1,0.5-2.1,0.8-3.1,1.2c-5.3,2.2-6,3.4-5.6,9c0.1,1.2,0.6,2.5-1.2,2.9c-1.6,0.3-2.2-0.7-2.6-1.9
	c-1-3-2.1-6-3.2-8.9c-0.6-1.6-0.1-2.5,1.5-3.1c12.8-4.6,25.7-9.2,38.5-13.8c1.6-0.6,2.5-0.1,3.1,1.4c1.1,3.2,2.3,6.3,3.4,9.5
	c0.4,1.1,0.2,2.1-0.9,2.6c-1.2,0.6-1.6-0.4-2.1-1.1c-4.2-5.4-9.2-6.1-15-2.3c-1,0.6-0.8,1.3-0.5,2c4.5,12.4,9,24.9,13.5,37.3
	C253.7,183.6,254.6,184.9,256.6,185z"/>
<path class="st1" d="M512.2,552.3c0,16.1-17.1,27.6-32.2,22c-17.5-6.5-24.3-27.1-13.7-41.3c2.7-3.6,6.2-6.2,10.4-7.8
	c2-0.7,3.4-1.6,2-4c-0.7-1.2,0.2-1.9,1-2.6c0.9-0.8,1.5,0.1,2.1,0.6c3.7,2.9,7.3,5.9,10.9,8.9c0.9,0.7,1.7,1.5,0.9,2.8
	c-0.8,1.3-1.7,0.6-2.7,0.2c-1.4-0.5-2.9-1.1-4.3-1.5c-5.9-1.7-10.9,0-14.9,4.5c-3.9,4.4-4.8,9.5-2.6,14.8
	c3.4,8.1,9.3,14.2,17.4,17.6c10.6,4.4,22.5-4.6,21.7-16c-0.1-1.7-0.3-3.5-0.6-5.2c-0.2-1.3,0.1-2.1,1.5-2.4c1.5-0.4,1.7,0.5,2,1.6
	C511.7,547.2,512.3,549.9,512.2,552.3z"/>
<path class="st1" d="M491.3,192c0,1.5-1.7,2.3-3.2,1.5c-5.2-2.8-5.2-2.8-9.1,1.7c-7.8,9.1-15.7,18.2-23.4,27.4
	c-2.8,3.3-2.7,3.8,0.1,6.9c1,1.1,2.2,2.2,0.8,3.6c-1.3,1.3-2.4,0.2-3.4-0.6c-4.9-4.2-9.7-8.3-14.6-12.5c-1-0.9-2.2-1.9-1.1-3.3
	c1.1-1.5,2.3-0.6,3.4,0.2c3.4,2.4,4.2,2.4,6.9-0.8c8.3-9.6,16.6-19.3,24.8-29c2.9-3.4,2.8-3.5-0.1-6.9c-0.9-1.1-2.2-2.2-0.7-3.6
	c1.3-1.2,2.4-0.1,3.4,0.7c4.9,4.2,9.7,8.4,14.6,12.5C490.5,190.4,491.2,191,491.3,192z"/>
<path class="st1" d="M531.2,512.7c0.1,9.1-7.3,16.5-16.5,16.4c-9.7,0-19.4-8.8-19.3-17.3c0.1-10.1,7-17.6,16.4-17.7
	C521.9,494.1,531.1,502.8,531.2,512.7z M516.8,523.4c5.2,0.3,7.8-1.3,9.4-4.4c1.8-3.5,1.3-6.8-1-9.7c-4-5.1-9.2-8.2-15.5-9.6
	c-3.6-0.8-6.4,0.5-8.6,3.2c-2.2,2.8-2.6,6.1-0.8,9.1C504.5,518.9,510.7,522.5,516.8,523.4z"/>
<path class="st1" d="M526.1,541.1c-0.4-0.2-0.8-0.5-1.2-0.8c-0.5-0.6,0-1.2,0.3-1.6c1.3-2.1,2.6-4.1,3.9-6.2
	c4.7-7.3,9.3-14.5,14-21.8c0.5-0.7,0.7-2.5,2.4-1.4c1.5,1.1,0.2,2-0.3,2.8c-5.7,9-11.5,18-17.3,26.9
	C527.5,539.8,527.2,540.8,526.1,541.1z"/>
<path class="st1" d="M556.7,488c0.1,4.7-3.8,8.9-8.2,9c-4,0-7.1-3.3-7.2-7.5c-0.1-4.8,3.7-8.9,8.1-8.9
	C553.5,480.5,556.6,483.8,556.7,488z M555.3,488.1c0-3.4-2.6-6.2-5.7-6.3c-3.6-0.1-6.9,3.5-6.8,7.5c0.1,3.5,2.6,6.1,5.9,6.1
	C552.2,495.4,555.3,492.1,555.3,488.1z"/>
<path class="st2" d="M501.3,386.1c0.2,102.6-83.5,186.3-186.2,186.3c-102.6,0-186-83.3-186.2-186c-0.2-102.6,83.5-186.3,186.2-186.3
	C417.8,200.1,501.2,283.4,501.3,386.1z M320.8,215.4c-9.6-0.2-17.1,0.5-24.6,1.4c-15.6,1.9-28,9.1-37.9,21.1
	c-14.8,18-20.4,38.6-18.4,61.6c0.9,10.5,3.5,20.7,5.9,30.9c1.1,4.8,0.9,7.6-3.9,10.2c-5.3,2.8-5.7,8.3-1.8,12.9
	c4.1,4.8,8.5,9.4,12.8,14c2.5,2.7,4.5,2.6,7-0.1c2.2-2.4,4.7-4.2,7.9-4.9c7.2-1.6,11.8,1.3,13.2,8.5c0.4,2.1,0.4,4.3,0.5,6.4
	c0.2,6.9,0.4,13.9,0.5,20.8c0.1,4.3,2.1,7.6,5.1,10.4c0.5,0.4,1,1.2,1.8,0.8c0.6-0.3,0.4-1.1,0.5-1.7c0.3-2.2,0.5-4.5,0.8-6.7
	c0.2-1.5,0.8-3.2,2.4-3.1c1.9,0.1,1.6,2,1.6,3.4c-0.1,2.8-0.2,5.5-0.4,8.2c-0.2,2.3,1.6,2.2,3.1,2.5c1.8,0.4,1.7-1,1.8-2.1
	c0.3-3,0.5-6.1,0.8-9.1c0.1-1.2,0.4-2.8,1.8-2.8c1.5,0.1,1.9,1.6,1.8,3.1c-0.2,3.2-0.3,6.3-0.5,9.5c-0.1,1.6,0.1,2.7,2,2.4
	c1.6-0.3,4.1,1.2,4.3-2.2c0.2-3.3,0.6-6.5,1-9.7c0.2-1.3,0.9-2.8,2.1-2.7c1.4,0.1,1.4,1.8,1.4,3c-0.1,3.1-0.1,6.1-0.4,9.2
	c-0.3,2.7,1.6,2.4,3.1,2.4c1.5,0,3.4,0.3,3.2-2.4c-0.2-2.7-0.1-5.5,0.1-8.2c0.1-1.3,0.4-3.3,2.1-3.2c1.5,0.1,1.9,1.9,1.9,3.4
	c0,0.8,0,1.6,0,2.4c0,1.9-0.1,3.9,0,5.8c0.1,3.4,2.9,2,4.6,2.3c1.7,0.4,2.2-0.5,2.2-2.2c-0.1-3,0.1-5.9,0.2-8.9
	c0.1-1.3,0.3-2.9,1.7-2.9c1.5-0.1,2,1.7,2.1,2.9c0.2,2.7,0.1,5.5,0.1,8.3c0,1.6,0,3.2,2.1,3.3c2.4,0.1,2.1-1.8,2.2-3.2
	c0.1-3.2,0-6.3,0.1-9.5c0.1-1.5,0.8-3.2,2.3-3.1c1.2,0,1.4,1.8,1.4,3.1c0,3.3,0.1,6.5,0,9.8c0,1.8,0.5,2.1,2.1,1.5
	c3.8-1.3,6-4.7,5.6-8.8c-0.2-1.8-0.5-3.6-0.3-5.5c1.3-9.2,2.6-18.4,3.9-27.5c0.9-6.1,4.2-8,10.1-6c3.5,1.2,6.6,3.2,9.5,5.5
	c1.9,1.5,4,2,5.8,0.2c7-6.8,12.6-14.5,13.9-24.5c0.5-3.5-0.9-5.9-4.3-6.8c-3.1-0.8-3.5-2.6-3.2-5.1c0.2-1.5,0.3-3.1,0.5-4.6
	c1.4-8.5,2.9-17.1,4.2-25.6c1.6-10.5,3.1-21,0.6-31.6c-4.3-18.1-14.2-32.7-28.2-44.7c-6.7-5.7-14.6-9.1-23.3-10.6
	C332.3,215.5,325.5,215.6,320.8,215.4z M403.3,532.7c8,0,11.5-2.2,11.4-7.8c0-4.5,1.9-7.2,5.4-9.5c4.2-2.8,5.1-6.6,2.9-11.2
	c-1.8-3.8-4.8-6-9.1-6.2c-7.2-0.3-14.5-0.6-21.7-0.9c-3-0.1-5.8-0.8-8.5-2.2c-15.9-8.1-31.7-16.3-47.6-24.4c-0.8-0.4-2-0.5-2.1-1.6
	c0-1.2,1.3-1.4,2.2-1.8c17.2-8,34.4-16,51.5-24c3.7-1.7,7.3-1.8,10.8,0.4c2.9,1.7,5.7,1.3,8.3-0.5c3.5-2.5,5.5-6.1,4.4-10.3
	c-1-3.9,0.2-6.5,3-8.9c1-0.9,1.9-1.8,2.7-2.9c1.4-1.9,1.5-3.9,0.1-6c-4.7-7.2-14.9-7.4-19,0.1c-3.1,5.6-7.6,9.1-13.2,11.7
	c-21.6,10-43.2,20.2-64.7,30.3c-3.5,1.7-6.7,1.6-10.2-0.3c-18.5-9.9-37-19.8-55.6-29.5c-4.6-2.4-7.8-5.6-8.7-11
	c-0.6-3.9-3.8-5.4-7.4-5.9c-3.4-0.5-6.5,0.1-8.5,3.5c-2.5,4.2-2.6,4.1-7.6,3c-1.7-0.4-3.5-0.3-5.2,0.1c-2,0.4-3.2,1.7-3.5,3.7
	c-1.6,9.9,4.7,16.6,14.4,15c4.1-0.6,7.7,0,11.2,1.8c17.9,9.3,35.8,18.5,53.7,27.8c0.9,0.5,2.3,0.9,2.3,1.9c0,1.3-1.6,1.3-2.5,1.7
	c-18.8,7.5-37.7,14.9-56.4,22.6c-4.7,1.9-9.1,2.7-13.8,0.4c-4.1-1.9-7.7-0.7-10.8,2.4c-1.5,1.5-2.8,3.2-3.8,5.1
	c-2.5,4.7-2.1,7.6,1.7,11.2c2.9,2.7,4,5.6,3.3,9.6c-0.8,5.1,0.7,8.1,4.5,10c4.1,2.1,8.4,1.5,11.8-1.8c4.4-4.2,8.3-8.7,11.6-13.8
	c2.9-4.6,6.9-8,11.9-10.2c19.5-8.8,39-17.6,58.5-26.4c3-1.3,5.5-1.3,8.4,0.4c21.3,12.4,42.7,24.7,64.2,36.8c4.3,2.4,7.6,5.2,9.2,10
	C394.6,530.8,398.7,533,403.3,532.7z"/>
<path class="st2" d="M88.5,366.2c2.6,5.3,3.6,11,3.9,16.7c0.3,6.6-0.6,13.2-1.4,19.8c-0.5,4-0.6,7.9,0.7,11.8
	c0.9,2.7,1.5,5.6-0.2,8.3c-0.5,0.8-1,1.8-2.1,1.4c-1-0.4-0.6-1.4-0.3-2.1c0.9-2.9,0.4-5.7-0.3-8.5c-2.3-9.7-1.6-19.4-0.2-29.2
	c0.5-3.1,0.6-6-0.4-9C87.1,372.3,88.2,369.3,88.5,366.2z"/>
<path class="st2" d="M546.5,367.7c0.7,3.8,1.2,7.5-0.2,11.1c-0.9,2.3-0.4,4.9-0.1,7.3c1.4,10.2,1.2,20.3-1.2,30.3
	c-0.6,2.3-0.7,4.6-0.2,7c0.2,0.9,0.5,1.8-0.5,2.6c-2.7-1.7-3.3-4.4-2.5-6.9c2.9-8,1.5-16.1,1-24.2c-0.6-8.7-0.1-17.3,3-25.6
	C546,368.7,546.3,368.2,546.5,367.7z"/>
<path class="st2" d="M125.1,293.4c-0.2,5-1.7,8.9-4.2,12.5c-0.9,1.3-1.7,1.6-3.3,0.9c-11.7-5.2-23.4-10.4-35.2-15.5
	c-1.6-0.7-1.7-1.5-1.4-3.1c2.8-12,12.9-18.3,24.9-15.4c4.8,1.2,9.2,3.4,12.8,6.8C122.8,283.5,125.1,288.2,125.1,293.4z"/>
<path class="st2" d="M168.1,592.6c-8.8,0-15.7-7.5-14-15.8c2.4-11.8,9.1-20.8,20.1-26.2c4.6-2.3,9.2-1.5,13.2,1.6
	c4.3,3.2,6.9,7.8,5.8,13c-2.4,11.4-9,20.1-19.2,26C172.1,592.3,169.9,592.7,168.1,592.6z"/>
<path class="st2" d="M180.2,182.4c5.5,3.8,10.3,7.1,15.5,10.6c-3.8,2.5-7.3,4.8-10.7,7.1c-1.1,0.8-1.5,0.1-1.6-0.8
	C182.4,194,181.4,188.6,180.2,182.4z"/>
<path class="st2" d="M516.8,523.4c-6.1-0.9-12.3-4.5-16.5-11.3c-1.9-3.1-1.4-6.3,0.8-9.1c2.2-2.8,5-4,8.6-3.2
	c6.3,1.4,11.5,4.5,15.5,9.6c2.3,2.9,2.9,6.2,1,9.7C524.6,522.2,522,523.7,516.8,523.4z"/>
<path class="st2" d="M555.3,488.1c0,3.9-3.1,7.3-6.7,7.3c-3.3,0-5.8-2.6-5.9-6.1c-0.1-4,3.2-7.6,6.8-7.5
	C552.7,481.9,555.3,484.7,555.3,488.1z M553.4,487c-1.5,0.2-2.6,0.2-3.3-1.3c-0.5-1.1-1.9-1.3-3-0.7c-1.7,1-2.4,2.9-2.7,4.6
	c-0.2,1.2,1.6,1.2,2.6,1.7c1,0.6,2,1,3.1,1.4c0.3,0.1,0.9,0.1,1.1-0.1c0.4-0.5,0.1-0.9-0.4-1.2c-2-1.3-0.7-2,0.5-2.8
	C551.8,488.2,552.9,488.6,553.4,487z"/>
<path class="st1" d="M320.8,215.4c4.7,0.2,11.6,0.1,18.3,1.3c8.7,1.5,16.6,4.9,23.3,10.6c14,12,23.9,26.6,28.2,44.7
	c2.5,10.6,1,21.1-0.6,31.6c-1.3,8.6-2.8,17.1-4.2,25.6c-0.2,1.5-0.3,3-0.5,4.6c-0.3,2.5,0.1,4.3,3.2,5.1c3.4,0.8,4.8,3.3,4.3,6.8
	c-1.3,10-6.9,17.7-13.9,24.5c-1.8,1.8-3.9,1.3-5.8-0.2c-2.9-2.3-5.9-4.4-9.5-5.5c-5.9-2-9.2-0.1-10.1,6c-1.4,9.2-2.6,18.4-3.9,27.5
	c-0.3,1.8,0.1,3.7,0.3,5.5c0.4,4.1-1.9,7.5-5.6,8.8c-1.6,0.6-2.2,0.3-2.1-1.5c0.1-3.3,0-6.5,0-9.8c0-1.2-0.2-3-1.4-3.1
	c-1.5-0.1-2.2,1.6-2.3,3.1c-0.1,3.2,0,6.3-0.1,9.5c0,1.5,0.2,3.3-2.2,3.2c-2.1-0.1-2.2-1.7-2.1-3.3c0-2.8,0.1-5.5-0.1-8.3
	c-0.1-1.3-0.5-3-2.1-2.9c-1.3,0-1.6,1.7-1.7,2.9c-0.1,3-0.3,5.9-0.2,8.9c0,1.7-0.5,2.6-2.2,2.2c-1.7-0.4-4.5,1.1-4.6-2.3
	c-0.1-1.9,0-3.9,0-5.8c0-0.8,0-1.6,0-2.4c-0.1-1.5-0.5-3.3-1.9-3.4c-1.6-0.1-2,1.9-2.1,3.2c-0.2,2.7-0.2,5.5-0.1,8.2
	c0.2,2.7-1.7,2.4-3.2,2.4c-1.5,0-3.4,0.3-3.1-2.4c0.3-3,0.3-6.1,0.4-9.2c0-1.2,0-2.9-1.4-3c-1.2-0.1-2,1.4-2.1,2.7
	c-0.4,3.2-0.8,6.5-1,9.7c-0.2,3.4-2.7,1.9-4.3,2.2c-1.9,0.3-2.2-0.8-2-2.4c0.2-3.2,0.3-6.3,0.5-9.5c0.1-1.4-0.3-3-1.8-3.1
	c-1.3-0.1-1.7,1.5-1.8,2.8c-0.3,3-0.5,6.1-0.8,9.1c-0.1,1.1-0.1,2.4-1.8,2.1c-1.4-0.3-3.2-0.1-3.1-2.5c0.2-2.7,0.4-5.5,0.4-8.2
	c0-1.4,0.3-3.3-1.6-3.4c-1.6-0.1-2.2,1.7-2.4,3.1c-0.3,2.2-0.5,4.5-0.8,6.7c-0.1,0.6,0.1,1.4-0.5,1.7c-0.8,0.4-1.3-0.4-1.8-0.8
	c-3.1-2.8-5.1-6.1-5.1-10.4c-0.1-6.9-0.3-13.9-0.5-20.8c-0.1-2.1-0.1-4.3-0.5-6.4c-1.4-7.2-6-10.1-13.2-8.5
	c-3.2,0.7-5.7,2.4-7.9,4.9c-2.5,2.7-4.5,2.7-7,0.1c-4.3-4.6-8.7-9.2-12.8-14c-4-4.6-3.5-10.1,1.8-12.9c4.8-2.6,5-5.4,3.9-10.2
	c-2.4-10.2-5-20.4-5.9-30.9c-2-23,3.6-43.6,18.4-61.6c9.9-12.1,22.4-19.3,37.9-21.1C303.6,215.9,311.1,215.2,320.8,215.4z
	 M368,309.2c-7,0.5-13,1-19,1.5c-6,0.5-12,0.9-18,1.5c-3.1,0.3-5.4,1.8-6.3,4.9c-1,3.1-0.8,6.1,1.6,8.5c5.3,5.3,10.7,10.6,16.6,15.3
	c4.5,3.6,9.7,4.6,15.2,2.8c2.4-0.8,4.8-1.6,7.2-2.5c11.1-4.1,17.8-17,14.8-28.5c-0.6-2.4-1.9-3.5-4.3-3.5
	C372.8,309.2,369.9,309.2,368,309.2z M273.3,344.1c7.2,0,14-0.9,19.7-5.5c4.7-3.8,8.6-8.4,11.9-13.4c0.9-1.4,1.5-2.9,2-4.5
	c0.8-2.8,0-4.8-2.8-5.8c-2.2-0.8-4.4-1.8-6.7-1.9c-12.2-1-24.3-2-36.5-3c-5-0.4-8.3,2.6-8.5,7.7c-0.1,4,0.5,7.9,1.4,11.8
	C255.6,337.9,264.4,345.4,273.3,344.1z M317.3,355.6c0.1,0,0.2,0,0.3,0c0,3.3-0.1,6.5,0,9.8c0,1.5,0.3,3.1,1.7,4.1
	c3.3,2.3,9.7-0.3,10.6-4.2c1.3-5.6-3.5-18.2-8.2-21.5c-2.4-1.7-4.1-1-4.3,2C317.2,349.1,317.3,352.3,317.3,355.6z M315.8,354.3
	c0-1.6,0-4.6,0-7.5c0-1.3-0.2-2.7-1.6-3.4c-1.3-0.6-2.1,0.5-2.9,1.2c-6.2,5.6-9.4,12.4-8.2,20.8c0.4,3,3.3,5.2,6.3,5
	c3.1-0.1,5.4-2.4,5.8-5.7C315.4,361.7,315.5,358.6,315.8,354.3z"/>
<path class="st1" d="M403.3,532.7c-4.6,0.3-8.7-2-10.5-7.3c-1.6-4.8-5-7.6-9.2-10c-21.4-12.2-42.8-24.5-64.2-36.8
	c-2.9-1.7-5.4-1.7-8.4-0.4c-19.5,8.9-39,17.6-58.5,26.4c-5,2.2-8.9,5.6-11.9,10.2c-3.3,5.1-7.2,9.6-11.6,13.8
	c-3.4,3.2-7.8,3.8-11.8,1.8c-3.8-1.9-5.4-4.9-4.5-10c0.7-3.9-0.5-6.9-3.3-9.6c-3.9-3.6-4.2-6.5-1.7-11.2c1-1.9,2.3-3.6,3.8-5.1
	c3.1-3.2,6.7-4.4,10.8-2.4c4.8,2.2,9.2,1.5,13.8-0.4c18.8-7.6,37.6-15,56.4-22.6c1-0.4,2.6-0.4,2.5-1.7c0-0.9-1.4-1.4-2.3-1.9
	c-17.9-9.3-35.8-18.6-53.7-27.8c-3.5-1.8-7.2-2.4-11.2-1.8c-9.7,1.5-16-5.2-14.4-15c0.3-2.1,1.6-3.3,3.5-3.7
	c1.7-0.4,3.4-0.4,5.2-0.1c5.1,1.1,5.1,1.2,7.6-3c2-3.3,5.1-4,8.5-3.5c3.5,0.5,6.7,2,7.4,5.9c0.9,5.4,4.1,8.6,8.7,11
	c18.6,9.8,37.1,19.6,55.6,29.5c3.5,1.9,6.6,2,10.2,0.3c21.6-10.2,43.1-20.3,64.7-30.3c5.6-2.6,10.1-6.2,13.2-11.7
	c4.2-7.5,14.3-7.4,19-0.1c1.3,2,1.3,4.1-0.1,6c-0.8,1.1-1.7,2-2.7,2.9c-2.8,2.4-4,5-3,8.9c1.1,4.2-0.8,7.8-4.4,10.3
	c-2.6,1.9-5.4,2.3-8.3,0.5c-3.5-2.2-7.1-2.1-10.8-0.4c-17.2,8-34.4,16-51.5,24c-0.9,0.4-2.2,0.6-2.2,1.8c0,1,1.3,1.2,2.1,1.6
	c15.9,8.1,31.7,16.3,47.6,24.4c2.7,1.4,5.5,2.1,8.5,2.2c7.2,0.3,14.5,0.6,21.7,0.9c4.3,0.2,7.3,2.4,9.1,6.2
	c2.1,4.6,1.2,8.4-2.9,11.2c-3.5,2.3-5.4,5-5.4,9.5C414.8,530.5,411.3,532.8,403.3,532.7z"/>
<path class="st1" d="M553.4,487c-0.5,1.6-1.6,1.2-2.2,1.6c-1.2,0.7-2.5,1.5-0.5,2.8c0.5,0.3,0.9,0.7,0.4,1.2
	c-0.2,0.2-0.8,0.2-1.1,0.1c-1-0.4-2.1-0.8-3.1-1.4c-0.9-0.5-2.8-0.5-2.6-1.7c0.3-1.7,1-3.6,2.7-4.6c1.1-0.6,2.5-0.4,3,0.7
	C550.8,487.2,551.9,487.2,553.4,487z M549.5,487.7c-0.1-1-0.6-1.7-1.5-1.6c-1.3,0.2-1.7,1.4-2,2.4c-0.3,1.3,1.1,1.5,1.8,1.5
	C549.3,490,549,488.5,549.5,487.7z"/>
<path class="st2" d="M368,309.2c1.9,0,4.9,0,7.8,0c2.4,0,3.7,1.1,4.3,3.5c3,11.5-3.7,24.4-14.8,28.5c-2.4,0.9-4.8,1.7-7.2,2.5
	c-5.6,1.8-10.7,0.8-15.2-2.8c-5.9-4.7-11.3-10-16.6-15.3c-2.4-2.4-2.6-5.4-1.6-8.5c1-3.1,3.2-4.6,6.3-4.9c6-0.5,12-1,18-1.5
	C354.9,310.2,360.9,309.8,368,309.2z"/>
<path class="st2" d="M273.3,344.1c-9,1.3-17.7-6.1-19.6-14.7c-0.9-3.9-1.5-7.8-1.4-11.8c0.2-5.1,3.5-8.1,8.5-7.7
	c12.2,0.9,24.4,1.9,36.5,3c2.3,0.2,4.5,1.1,6.7,1.9c2.8,1.1,3.6,3.1,2.8,5.8c-0.4,1.6-1.1,3.1-2,4.5c-3.3,5.1-7.2,9.6-11.9,13.4
	C287.3,343.1,280.5,344.1,273.3,344.1z"/>
<path class="st2" d="M317.3,355.6c0-3.3-0.1-6.5,0-9.8c0.2-3,1.9-3.7,4.3-2c4.7,3.3,9.5,15.9,8.2,21.5c-0.9,3.9-7.3,6.4-10.6,4.2
	c-1.4-1-1.6-2.6-1.7-4.1c-0.1-3.3,0-6.5,0-9.8C317.5,355.6,317.4,355.6,317.3,355.6z"/>
<path class="st2" d="M315.8,354.3c-0.3,4.4-0.4,7.4-0.7,10.4c-0.3,3.3-2.7,5.5-5.8,5.7c-3,0.1-6-2-6.3-5c-1.1-8.4,2.1-15.3,8.2-20.8
	c0.8-0.7,1.7-1.7,2.9-1.2c1.4,0.6,1.6,2,1.6,3.4C315.8,349.7,315.8,352.6,315.8,354.3z"/>
<path class="st2" d="M549.5,487.7c-0.5,0.8-0.2,2.4-1.7,2.3c-0.7,0-2.1-0.2-1.8-1.5c0.2-1,0.7-2.3,2-2.4
	C548.9,485.9,549.4,486.7,549.5,487.7z"/>
</svg>
